<svg preserveAspectRatio="none" width="100%" height="100%" overflow="visible" style="display: block;" viewBox="0 0 73.1354 118" fill="none" xmlns="http://www.w3.org/2000/svg">
<path id="Vector" d="M35.2797 0.0476089C40.9314 -0.237685 46.5694 0.761995 51.78 2.97198C60.4092 6.65314 67.2418 13.6076 70.7799 22.3199C74.5569 31.8548 73.8171 43.5035 68.3768 52.2121C65.5831 56.6873 63.8002 57.723 61.4109 62.9578C56.5817 73.5473 52.6025 84.4447 48.003 95.0697C49.7123 96.1583 50.328 96.0154 50.9529 98.0738C51.8765 101.106 48.853 101.897 48.6049 103.155C47.5803 108.278 49.8915 111.264 46.7716 116.008C49.5423 115.995 62.7526 114.948 63.5935 117.269C61.9899 118.133 41.8688 117.831 38.4915 117.83L20.043 117.849C17.6629 117.854 11.3863 118.557 9.94346 116.887L10.0675 116.428C11.9101 115.67 23.719 116.017 26.6138 116.003C24.2841 112.767 24.932 110.475 25.0331 106.754C25.2169 100.07 21.7523 104.05 22.5059 96.7704C23.3835 96.0772 24.353 95.5716 25.3272 95.0208C20.6771 84.9355 16.8726 73.463 12.0755 63.6003C6.79596 52.7379 0.914488 50.2238 0.0690274 36.6882C-0.505335 27.7685 2.52272 18.9927 8.47771 12.3443C15.6457 4.22515 24.7023 0.682721 35.2797 0.0476089Z" fill="var(--fill-0, #1A41A6)"/>
</svg>
