<svg preserveAspectRatio="none" width="100%" height="100%" overflow="visible" style="display: block;" viewBox="0 0 6.36392 7.00031" fill="none" xmlns="http://www.w3.org/2000/svg">
<path id="Icon" d="M0.318196 1.59098H0.954588M0.954588 1.59098H6.04572M0.954588 1.59098V6.04572C0.954588 6.2145 1.02164 6.37637 1.14098 6.49572C1.26033 6.61507 1.4222 6.68211 1.59098 6.68211H4.77294C4.94172 6.68211 5.10359 6.61507 5.22294 6.49572C5.34228 6.37637 5.40933 6.2145 5.40933 6.04572V1.59098H0.954588ZM1.90918 1.59098V0.954588C1.90918 0.785806 1.97622 0.623937 2.09557 0.504591C2.21492 0.385244 2.37679 0.318196 2.54557 0.318196H3.81835C3.98713 0.318196 4.149 0.385244 4.26835 0.504591C4.38769 0.623937 4.45474 0.785806 4.45474 0.954588V1.59098M2.54557 3.18196V5.09114M3.81835 3.18196V5.09114" stroke="var(--stroke-0, #1A41A6)" stroke-width="0.636392" stroke-linecap="round" stroke-linejoin="round"/>
</svg>
