<svg preserveAspectRatio="none" width="100%" height="100%" overflow="visible" style="display: block;" viewBox="0 0 91.3692 17.7637" fill="none" xmlns="http://www.w3.org/2000/svg">
<g id="Vector">
<path d="M5.1416 14.959C5.91608 14.959 6.54381 15.5869 6.54395 16.3613C6.54395 17.1359 5.91616 17.7637 5.1416 17.7637C4.36718 17.7635 3.73926 17.1358 3.73926 16.3613C3.73939 15.587 4.36726 14.9591 5.1416 14.959Z" fill="var(--fill-0, #1A41A6)"/>
<path fill-rule="evenodd" clip-rule="evenodd" d="M12.6221 1.86839e-07C13.3965 0.000207921 14.0244 0.627915 14.0244 1.40234C14.0242 2.17662 13.3963 2.80448 12.6221 2.80469C12.1935 2.80469 11.7186 2.83014 11.4155 3.13308L10.6129 3.93527C10.3098 4.23815 10.2841 4.71316 10.2842 5.1416C10.2842 5.56956 10.3095 6.04374 10.6122 6.34627L11.4159 7.14953C11.7188 7.45228 12.1938 7.47949 12.6221 7.47949C13.0494 7.47961 13.5229 7.45368 13.825 7.15154L14.6304 6.34621C14.9329 6.04367 14.959 5.56946 14.959 5.1416C14.9591 4.36726 15.587 3.73939 16.3613 3.73926C17.1358 3.73926 17.7635 4.36718 17.7637 5.1416C17.7637 5.91616 17.1359 6.54395 16.3613 6.54395C15.9334 6.54387 15.4591 6.5692 15.1565 6.8718L14.3529 7.67537C14.05 7.97836 14.0244 8.45334 14.0244 8.88184C14.0244 9.30929 14.0493 9.78272 14.3516 10.085L15.1567 10.8901C15.4592 11.1926 15.9335 11.2188 16.3613 11.2188C17.1359 11.2188 17.7637 11.8475 17.7637 12.6221C17.7635 13.3965 17.1358 14.0244 16.3613 14.0244C15.587 14.0243 14.9592 13.3964 14.959 12.6221C14.959 12.1937 14.9326 11.7187 14.6297 11.4158L13.8252 10.6113C13.523 10.3091 13.0495 10.2841 12.6221 10.2842C12.1936 10.2842 11.7186 10.3097 11.4156 10.6127L10.6127 11.4156C10.3097 11.7186 10.2842 12.1936 10.2842 12.6221C10.2841 13.0495 10.3091 13.523 10.6113 13.8252L11.4158 14.6297C11.7187 14.9326 12.1937 14.959 12.6221 14.959C13.3964 14.9592 14.0243 15.587 14.0244 16.3613C14.0244 17.1358 13.3965 17.7635 12.6221 17.7637C11.8475 17.7637 11.2187 17.1359 11.2188 16.3613C11.2188 15.9334 11.1935 15.4591 10.8909 15.1565L10.0852 14.3508C9.78282 14.0484 9.30942 14.0244 8.88184 14.0244C8.83186 14.0244 8.78251 14.0218 8.73392 14.0166C8.39488 13.9805 8.02133 14.0072 7.78036 14.2484L7.5083 14.5207C7.36301 14.6662 7.12727 14.6661 6.98204 14.5206C6.83711 14.3754 6.83716 14.1403 6.98215 13.9951L7.25483 13.7222C7.49599 13.4807 7.52266 13.107 7.4871 12.7676C7.48209 12.7198 7.47951 12.6712 7.47949 12.6221C7.47949 12.1937 7.45308 11.7187 7.15018 11.4158L6.3464 10.612C6.04377 10.3094 5.56958 10.2842 5.1416 10.2842C4.3672 10.284 3.73928 9.65627 3.73926 8.88184C3.73926 8.10738 4.36718 7.47965 5.1416 7.47949C5.56945 7.47949 6.04368 7.45339 6.34621 7.15086L7.15086 6.34621C7.45339 6.04368 7.47949 5.56945 7.47949 5.1416C7.47951 5.07368 7.48439 5.00691 7.49381 4.94162C7.53794 4.63547 7.51146 4.29759 7.29274 4.07887L7.07031 3.85645C6.92519 3.71132 6.92508 3.47607 7.07007 3.33081C7.21525 3.18536 7.45088 3.18525 7.59619 3.33057L7.81846 3.55283C8.03697 3.77135 8.37459 3.7979 8.68043 3.75369C8.7462 3.74419 8.81344 3.73926 8.88184 3.73926C9.30968 3.73927 9.78392 3.71315 10.0864 3.41062L10.8916 2.60548C11.1938 2.30323 11.2189 1.82979 11.2188 1.40234C11.2188 0.627787 11.8475 1.69911e-07 12.6221 1.86839e-07ZM10.085 6.87112C9.78274 6.56887 9.30928 6.54393 8.88184 6.54395C8.45335 6.54395 7.97835 6.56951 7.67536 6.87249L6.87249 7.67536C6.56951 7.97834 6.54395 8.45335 6.54395 8.88184C6.54393 9.30928 6.56887 9.78274 6.87112 10.085L7.67557 10.8894C7.97847 11.1923 8.45346 11.2187 8.88184 11.2188C9.3093 11.2188 9.78271 11.1938 10.085 10.8916L10.8916 10.085C11.1938 9.78271 11.2188 9.3093 11.2188 8.88184C11.2188 8.45346 11.1923 7.97847 10.8894 7.67557L10.085 6.87112Z" fill="var(--fill-0, #1A41A6)"/>
<path d="M1.40234 11.2188C2.17674 11.2189 2.80469 11.8476 2.80469 12.6221C2.80448 13.3963 2.17662 14.0242 1.40234 14.0244C0.627915 14.0244 0.000208731 13.3965 0 12.6221C1.69285e-08 11.8475 0.627786 11.2187 1.40234 11.2188Z" fill="var(--fill-0, #1A41A6)"/>
<path d="M1.40234 3.73926C2.17665 3.73944 2.80453 4.36729 2.80469 5.1416C2.80469 5.91605 2.17674 6.54376 1.40234 6.54395C0.627787 6.54395 1.46562e-07 5.91616 1.63491e-07 5.1416C0.000159612 4.36718 0.627885 3.73926 1.40234 3.73926Z" fill="var(--fill-0, #1A41A6)"/>
<path d="M5.1416 2.33485e-08C5.91616 4.0277e-08 6.54395 0.627786 6.54395 1.40234C6.54376 2.17674 5.91605 2.80469 5.1416 2.80469C4.36729 2.80453 3.73944 2.17665 3.73926 1.40234C3.73926 0.627885 4.36718 0.000159438 5.1416 2.33485e-08Z" fill="var(--fill-0, #1A41A6)"/>
<path d="M19.931 14.959C20.7054 14.959 21.3332 15.5869 21.3333 16.3613C21.3333 17.1359 20.7055 17.7637 19.931 17.7637C19.1565 17.7635 18.5286 17.1358 18.5286 16.3613C18.5287 15.587 19.1566 14.9591 19.931 14.959Z" fill="var(--fill-0, #1A41A6)"/>
<path fill-rule="evenodd" clip-rule="evenodd" d="M27.4114 1.82245e-07C28.1858 0.000207916 28.8138 0.627915 28.8138 1.40234C28.8136 2.17662 28.1857 2.80448 27.4114 2.80469C26.9829 2.80469 26.5079 2.83014 26.2048 3.13308L25.4022 3.93527C25.0992 4.23815 25.0734 4.71316 25.0735 5.1416C25.0735 5.56956 25.0988 6.04374 25.4015 6.34627L26.2052 7.14953C26.5081 7.45228 26.9832 7.47949 27.4114 7.47949C27.8387 7.47961 28.3122 7.45368 28.6144 7.15154L29.4197 6.34621C29.7222 6.04367 29.7483 5.56946 29.7483 5.1416C29.7485 4.36726 30.3763 3.73939 31.1507 3.73926C31.9251 3.73926 32.5529 4.36718 32.553 5.1416C32.553 5.91616 31.9252 6.54395 31.1507 6.54395C30.7227 6.54387 30.2485 6.5692 29.9459 6.8718L29.1423 7.67537C28.8393 7.97836 28.8138 8.45334 28.8138 8.88184C28.8138 9.30929 28.8387 9.78272 29.1409 10.085L29.9461 10.8901C30.2486 11.1926 30.7228 11.2188 31.1507 11.2188C31.9252 11.2188 32.553 11.8475 32.553 12.6221C32.5528 13.3965 31.9251 14.0244 31.1507 14.0244C30.3764 14.0243 29.7485 13.3964 29.7483 12.6221C29.7483 12.1937 29.7219 11.7187 29.419 11.4158L28.6146 10.6113C28.3123 10.3091 27.8389 10.2841 27.4114 10.2842C26.9829 10.2842 26.508 10.3097 26.205 10.6127L25.4021 11.4156C25.0991 11.7186 25.0735 12.1936 25.0735 12.6221C25.0734 13.0495 25.0985 13.523 25.4007 13.8252L26.2052 14.6297C26.5081 14.9326 26.9831 14.959 27.4114 14.959C28.1857 14.9592 28.8136 15.587 28.8138 16.3613C28.8138 17.1358 28.1858 17.7635 27.4114 17.7637C26.6369 17.7637 26.0081 17.1359 26.0081 16.3613C26.0082 15.9334 25.9829 15.4591 25.6803 15.1565L24.8745 14.3508C24.5722 14.0484 24.0988 14.0244 23.6712 14.0244C23.6212 14.0244 23.5719 14.0218 23.5233 14.0166C23.1842 13.9805 22.8107 14.0072 22.5697 14.2484L22.2977 14.5207C22.1524 14.6662 21.9166 14.6661 21.7714 14.5206C21.6265 14.3754 21.6265 14.1403 21.7715 13.9951L22.0442 13.7222C22.2853 13.4807 22.312 13.107 22.2765 12.7676C22.2714 12.7198 22.2689 12.6712 22.2688 12.6221C22.2688 12.1937 22.2424 11.7187 21.9395 11.4158L21.1358 10.612C20.8331 10.3094 20.3589 10.2842 19.931 10.2842C19.1566 10.284 18.5286 9.65627 18.5286 8.88184C18.5286 8.10738 19.1565 7.47965 19.931 7.47949C20.3588 7.47949 20.833 7.45339 21.1356 7.15086L21.9402 6.34621C22.2427 6.04368 22.2688 5.56945 22.2688 5.1416C22.2689 5.07368 22.2738 5.00691 22.2832 4.94162C22.3273 4.63547 22.3008 4.29759 22.0821 4.07887L21.8597 3.85645C21.7145 3.71132 21.7144 3.47607 21.8594 3.33081C22.0046 3.18536 22.2402 3.18525 22.3855 3.33057L22.6078 3.55283C22.8263 3.77135 23.1639 3.7979 23.4698 3.75369C23.5356 3.74419 23.6028 3.73926 23.6712 3.73926C24.099 3.73927 24.5733 3.71315 24.8758 3.41062L25.6809 2.60548C25.9832 2.30323 26.0082 1.82979 26.0081 1.40234C26.0081 0.627787 26.6369 1.65317e-07 27.4114 1.82245e-07ZM24.8743 6.87112C24.5721 6.56887 24.0986 6.54393 23.6712 6.54395C23.2427 6.54395 22.7677 6.56951 22.4647 6.87249L21.6618 7.67536C21.3589 7.97834 21.3333 8.45335 21.3333 8.88184C21.3333 9.30928 21.3582 9.78274 21.6605 10.085L22.4649 10.8894C22.7678 11.1923 23.2428 11.2187 23.6712 11.2188C24.0987 11.2188 24.5721 11.1938 24.8743 10.8916L25.6809 10.085C25.9832 9.78271 26.0081 9.3093 26.0081 8.88184C26.0081 8.45346 25.9817 7.97847 25.6788 7.67557L24.8743 6.87112Z" fill="var(--fill-0, #1A41A6)"/>
<path d="M16.1917 11.2188C16.9661 11.2189 17.594 11.8476 17.594 12.6221C17.5938 13.3963 16.966 14.0242 16.1917 14.0244C15.4173 14.0244 14.7896 13.3965 14.7894 12.6221C14.7894 11.8475 15.4171 11.2187 16.1917 11.2188Z" fill="var(--fill-0, #1A41A6)"/>
<path d="M16.1917 3.73926C16.966 3.73944 17.5939 4.36729 17.594 5.1416C17.594 5.91605 16.9661 6.54376 16.1917 6.54395C15.4171 6.54395 14.7894 5.91616 14.7894 5.1416C14.7895 4.36718 15.4172 3.73926 16.1917 3.73926Z" fill="var(--fill-0, #1A41A6)"/>
<path d="M19.931 1.87547e-08C20.7055 3.56832e-08 21.3333 0.627786 21.3333 1.40234C21.3331 2.17674 20.7054 2.80469 19.931 2.80469C19.1566 2.80453 18.5288 2.17665 18.5286 1.40234C18.5286 0.627885 19.1565 0.000159433 19.931 1.87547e-08Z" fill="var(--fill-0, #1A41A6)"/>
<path d="M34.7203 14.959C35.4948 14.959 36.1225 15.5869 36.1227 16.3613C36.1227 17.1359 35.4949 17.7637 34.7203 17.7637C33.9459 17.7635 33.318 17.1358 33.318 16.3613C33.3181 15.587 33.946 14.9591 34.7203 14.959Z" fill="var(--fill-0, #1A41A6)"/>
<path fill-rule="evenodd" clip-rule="evenodd" d="M42.2008 1.77652e-07C42.9752 0.000207911 43.6031 0.627915 43.6031 1.40234C43.6029 2.17662 42.975 2.80448 42.2008 2.80469C41.7723 2.80469 41.2973 2.83014 40.9942 3.13308L40.1916 3.93527C39.8885 4.23815 39.8628 4.71316 39.8629 5.1416C39.8629 5.56956 39.8882 6.04374 40.1909 6.34627L40.9946 7.14953C41.2975 7.45228 41.7725 7.47949 42.2008 7.47949C42.6281 7.47961 43.1016 7.45368 43.4037 7.15154L44.2091 6.34621C44.5116 6.04367 44.5377 5.56946 44.5377 5.1416C44.5379 4.36726 45.1657 3.73939 45.94 3.73926C46.7145 3.73926 47.3422 4.36718 47.3424 5.1416C47.3424 5.91616 46.7146 6.54395 45.94 6.54395C45.5121 6.54387 45.0378 6.5692 44.7352 6.8718L43.9317 7.67537C43.6287 7.97836 43.6031 8.45334 43.6031 8.88184C43.6031 9.30929 43.628 9.78272 43.9303 10.085L44.7354 10.8901C45.038 11.1926 45.5122 11.2188 45.94 11.2188C46.7146 11.2188 47.3424 11.8475 47.3424 12.6221C47.3422 13.3965 46.7145 14.0244 45.94 14.0244C45.1657 14.0243 44.5379 13.3964 44.5377 12.6221C44.5377 12.1937 44.5113 11.7187 44.2084 11.4158L43.4039 10.6113C43.1017 10.3091 42.6282 10.2841 42.2008 10.2842C41.7723 10.2842 41.2973 10.3097 40.9943 10.6127L40.1914 11.4156C39.8884 11.7186 39.8629 12.1936 39.8629 12.6221C39.8628 13.0495 39.8878 13.523 40.1901 13.8252L40.9945 14.6297C41.2974 14.9326 41.7724 14.959 42.2008 14.959C42.9751 14.9592 43.603 15.587 43.6031 16.3613C43.6031 17.1358 42.9752 17.7635 42.2008 17.7637C41.4262 17.7637 40.7975 17.1359 40.7975 16.3613C40.7975 15.9334 40.7722 15.4591 40.4696 15.1565L39.6639 14.3508C39.3615 14.0484 38.8881 14.0244 38.4605 14.0244C38.4106 14.0244 38.3612 14.0218 38.3126 14.0166C37.9736 13.9805 37.6 14.0072 37.3591 14.2484L37.087 14.5207C36.9417 14.6662 36.706 14.6661 36.5608 14.5206C36.4158 14.3754 36.4159 14.1403 36.5609 13.9951L36.8335 13.7222C37.0747 13.4807 37.1014 13.107 37.0658 12.7676C37.0608 12.7198 37.0582 12.6712 37.0582 12.6221C37.0582 12.1937 37.0318 11.7187 36.7289 11.4158L35.9251 10.612C35.6225 10.3094 35.1483 10.2842 34.7203 10.2842C33.9459 10.284 33.318 9.65627 33.318 8.88184C33.318 8.10738 33.9459 7.47965 34.7203 7.47949C35.1482 7.47949 35.6224 7.45339 35.9249 7.15086L36.7296 6.34621C37.0321 6.04368 37.0582 5.56945 37.0582 5.1416C37.0582 5.07368 37.0631 5.00691 37.0725 4.94162C37.1167 4.63547 37.0902 4.29759 36.8715 4.07887L36.649 3.85645C36.5039 3.71132 36.5038 3.47607 36.6488 3.33081C36.794 3.18536 37.0296 3.18525 37.1749 3.33057L37.3972 3.55283C37.6157 3.77135 37.9533 3.7979 38.2591 3.75369C38.3249 3.74419 38.3922 3.73926 38.4605 3.73926C38.8884 3.73927 39.3626 3.71315 39.6652 3.41062L40.4703 2.60548C40.7726 2.30323 40.7976 1.82979 40.7975 1.40234C40.7975 0.627787 41.4262 1.60723e-07 42.2008 1.77652e-07ZM39.6637 6.87112C39.3615 6.56887 38.888 6.54393 38.4605 6.54395C38.0321 6.54395 37.5571 6.56951 37.2541 6.87249L36.4512 7.67536C36.1482 7.97834 36.1227 8.45335 36.1227 8.88184C36.1226 9.30928 36.1476 9.78274 36.4498 10.085L37.2543 10.8894C37.5572 11.1923 38.0322 11.2187 38.4605 11.2188C38.888 11.2188 39.3614 11.1938 39.6637 10.8916L40.4703 10.085C40.7726 9.78271 40.7975 9.3093 40.7975 8.88184C40.7975 8.45346 40.7711 7.97847 40.4681 7.67557L39.6637 6.87112Z" fill="var(--fill-0, #1A41A6)"/>
<path d="M30.9811 11.2188C31.7555 11.2189 32.3834 11.8476 32.3834 12.6221C32.3832 13.3963 31.7553 14.0242 30.9811 14.0244C30.2066 14.0244 29.5789 13.3965 29.5787 12.6221C29.5787 11.8475 30.2065 11.2187 30.9811 11.2188Z" fill="var(--fill-0, #1A41A6)"/>
<path d="M30.9811 3.73926C31.7554 3.73944 32.3832 4.36729 32.3834 5.1416C32.3834 5.91605 31.7555 6.54376 30.9811 6.54395C30.2065 6.54395 29.5787 5.91616 29.5787 5.1416C29.5789 4.36718 30.2066 3.73926 30.9811 3.73926Z" fill="var(--fill-0, #1A41A6)"/>
<path d="M34.7203 1.41608e-08C35.4949 3.10893e-08 36.1227 0.627786 36.1227 1.40234C36.1225 2.17674 35.4948 2.80469 34.7203 2.80469C33.946 2.80453 33.3182 2.17665 33.318 1.40234C33.318 0.627885 33.9459 0.000159429 34.7203 1.41608e-08Z" fill="var(--fill-0, #1A41A6)"/>
<path d="M49.3959 14.959C50.1704 14.959 50.7981 15.5869 50.7982 16.3613C50.7982 17.1359 50.1705 17.7637 49.3959 17.7637C48.6215 17.7635 47.9936 17.1358 47.9936 16.3613C47.9937 15.587 48.6216 14.9591 49.3959 14.959Z" fill="var(--fill-0, #1A41A6)"/>
<path fill-rule="evenodd" clip-rule="evenodd" d="M56.8764 1.7057e-07C57.6508 0.000207904 58.2787 0.627915 58.2787 1.40234C58.2785 2.17662 57.6506 2.80448 56.8764 2.80469C56.4478 2.80469 55.9729 2.83014 55.6698 3.13308L54.8672 3.93527C54.5641 4.23815 54.5384 4.71316 54.5385 5.1416C54.5385 5.56956 54.5638 6.04374 54.8665 6.34627L55.6702 7.14953C55.9731 7.45228 56.4481 7.47949 56.8764 7.47949C57.3037 7.47961 57.7772 7.45368 58.0793 7.15154L58.8847 6.34621C59.1872 6.04367 59.2133 5.56946 59.2133 5.1416C59.2134 4.36726 59.8413 3.73939 60.6156 3.73926C61.3901 3.73926 62.0178 4.36718 62.018 5.1416C62.018 5.91616 61.3902 6.54395 60.6156 6.54395C60.1877 6.54387 59.7134 6.5692 59.4108 6.8718L58.6073 7.67537C58.3043 7.97836 58.2787 8.45334 58.2787 8.88184C58.2787 9.30929 58.3036 9.78272 58.6059 10.085L59.411 10.8901C59.7136 11.1926 60.1878 11.2188 60.6156 11.2188C61.3902 11.2188 62.018 11.8475 62.018 12.6221C62.0178 13.3965 61.3901 14.0244 60.6156 14.0244C59.8413 14.0243 59.2135 13.3964 59.2133 12.6221C59.2133 12.1937 59.1869 11.7187 58.884 11.4158L58.0795 10.6113C57.7773 10.3091 57.3038 10.2841 56.8764 10.2842C56.4479 10.2842 55.9729 10.3097 55.6699 10.6127L54.867 11.4156C54.564 11.7186 54.5385 12.1936 54.5385 12.6221C54.5384 13.0495 54.5634 13.523 54.8657 13.8252L55.6701 14.6297C55.973 14.9326 56.448 14.959 56.8764 14.959C57.6507 14.9592 58.2786 15.587 58.2787 16.3613C58.2787 17.1358 57.6508 17.7635 56.8764 17.7637C56.1018 17.7637 55.4731 17.1359 55.4731 16.3613C55.4731 15.9334 55.4478 15.4591 55.1452 15.1565L54.3395 14.3508C54.0371 14.0484 53.5637 14.0244 53.1361 14.0244C53.0862 14.0244 53.0368 14.0218 52.9882 14.0166C52.6492 13.9805 52.2756 14.0072 52.0347 14.2484L51.7626 14.5207C51.6173 14.6662 51.3816 14.6661 51.2363 14.5206C51.0914 14.3754 51.0915 14.1403 51.2365 13.9951L51.5091 13.7222C51.7503 13.4807 51.777 13.107 51.7414 12.7676C51.7364 12.7198 51.7338 12.6712 51.7338 12.6221C51.7338 12.1937 51.7074 11.7187 51.4045 11.4158L50.6007 10.612C50.2981 10.3094 49.8239 10.2842 49.3959 10.2842C48.6215 10.284 47.9936 9.65627 47.9936 8.88184C47.9936 8.10738 48.6215 7.47965 49.3959 7.47949C49.8238 7.47949 50.298 7.45339 50.6005 7.15086L51.4052 6.34621C51.7077 6.04368 51.7338 5.56945 51.7338 5.1416C51.7338 5.07368 51.7387 5.00691 51.7481 4.94162C51.7922 4.63547 51.7658 4.29759 51.547 4.07887L51.3246 3.85645C51.1795 3.71132 51.1794 3.47607 51.3244 3.33081C51.4695 3.18536 51.7052 3.18525 51.8505 3.33057L52.0728 3.55283C52.2913 3.77135 52.6289 3.7979 52.9347 3.75369C53.0005 3.74419 53.0677 3.73926 53.1361 3.73926C53.564 3.73927 54.0382 3.71315 54.3408 3.41062L55.1459 2.60548C55.4481 2.30323 55.4732 1.82979 55.4731 1.40234C55.4731 0.627787 56.1018 1.53642e-07 56.8764 1.7057e-07ZM54.3393 6.87112C54.037 6.56887 53.5636 6.54393 53.1361 6.54395C52.7077 6.54395 52.2326 6.56951 51.9297 6.87249L51.1268 7.67536C50.8238 7.97834 50.7982 8.45335 50.7982 8.88184C50.7982 9.30928 50.8232 9.78274 51.1254 10.085L51.9299 10.8894C52.2328 11.1923 52.7078 11.2187 53.1361 11.2188C53.5636 11.2188 54.037 11.1938 54.3393 10.8916L55.1459 10.085C55.4482 9.78271 55.4731 9.3093 55.4731 8.88184C55.4731 8.45346 55.4466 7.97847 55.1437 7.67557L54.3393 6.87112Z" fill="var(--fill-0, #1A41A6)"/>
<path d="M45.6566 11.2188C46.431 11.2189 47.059 11.8476 47.059 12.6221C47.0588 13.3963 46.4309 14.0242 45.6566 14.0244C44.8822 14.0244 44.2545 13.3965 44.2543 12.6221C44.2543 11.8475 44.8821 11.2187 45.6566 11.2188Z" fill="var(--fill-0, #1A41A6)"/>
<path d="M45.6566 3.73926C46.4309 3.73944 47.0588 4.36729 47.059 5.1416C47.059 5.91605 46.431 6.54376 45.6566 6.54395C44.8821 6.54395 44.2543 5.91616 44.2543 5.1416C44.2545 4.36718 44.8822 3.73926 45.6566 3.73926Z" fill="var(--fill-0, #1A41A6)"/>
<path d="M49.3959 7.08042e-09C50.1705 2.40089e-08 50.7982 0.627786 50.7982 1.40234C50.7981 2.17674 50.1703 2.80469 49.3959 2.80469C48.6216 2.80453 47.9937 2.17665 47.9936 1.40234C47.9936 0.627885 48.6215 0.000159422 49.3959 7.08042e-09Z" fill="var(--fill-0, #1A41A6)"/>
<path d="M64.0715 14.959C64.846 14.959 65.4737 15.5869 65.4738 16.3613C65.4738 17.1359 64.8461 17.7637 64.0715 17.7637C63.2971 17.7635 62.6692 17.1358 62.6692 16.3613C62.6693 15.587 63.2972 14.9591 64.0715 14.959Z" fill="var(--fill-0, #1A41A6)"/>
<path fill-rule="evenodd" clip-rule="evenodd" d="M71.552 1.63491e-07C72.3263 0.000207897 72.9543 0.627915 72.9543 1.40234C72.9541 2.17662 72.3262 2.80448 71.552 2.80469C71.1234 2.80469 70.6485 2.83014 70.3454 3.13308L69.5427 3.93527C69.2397 4.23815 69.214 4.71316 69.2141 5.1416C69.2141 5.56956 69.2394 6.04374 69.5421 6.34627L70.3457 7.14953C70.6487 7.45228 71.1237 7.47949 71.552 7.47949C71.9793 7.47961 72.4528 7.45368 72.7549 7.15154L73.5602 6.34621C73.8628 6.04367 73.8889 5.56946 73.8889 5.1416C73.889 4.36726 74.5169 3.73939 75.2912 3.73926C76.0657 3.73926 76.6934 4.36718 76.6936 5.1416C76.6936 5.91616 76.0658 6.54395 75.2912 6.54395C74.8633 6.54387 74.389 6.5692 74.0864 6.8718L73.2828 7.67537C72.9799 7.97836 72.9543 8.45334 72.9543 8.88184C72.9543 9.30929 72.9792 9.78272 73.2815 10.085L74.0866 10.8901C74.3891 11.1926 74.8634 11.2188 75.2912 11.2188C76.0658 11.2188 76.6936 11.8475 76.6936 12.6221C76.6934 13.3965 76.0657 14.0244 75.2912 14.0244C74.5169 14.0243 73.8891 13.3964 73.8889 12.6221C73.8889 12.1937 73.8625 11.7187 73.5596 11.4158L72.7551 10.6113C72.4529 10.3091 71.9794 10.2841 71.552 10.2842C71.1235 10.2842 70.6485 10.3097 70.3455 10.6127L69.5426 11.4156C69.2396 11.7186 69.2141 12.1936 69.2141 12.6221C69.214 13.0495 69.239 13.523 69.5412 13.8252L70.3457 14.6297C70.6486 14.9326 71.1236 14.959 71.552 14.959C72.3263 14.9592 72.9542 15.587 72.9543 16.3613C72.9543 17.1358 72.3263 17.7635 71.552 17.7637C70.7774 17.7637 70.1486 17.1359 70.1486 16.3613C70.1487 15.9334 70.1234 15.4591 69.8208 15.1565L69.0151 14.3508C68.7127 14.0484 68.2393 14.0244 67.8117 14.0244C67.7618 14.0244 67.7124 14.0218 67.6638 14.0166C67.3248 13.9805 66.9512 14.0072 66.7103 14.2484L66.4382 14.5207C66.2929 14.6662 66.0572 14.6661 65.9119 14.5206C65.767 14.3754 65.767 14.1403 65.912 13.9951L66.1847 13.7222C66.4259 13.4807 66.4526 13.107 66.417 12.7676C66.412 12.7198 66.4094 12.6712 66.4094 12.6221C66.4094 12.1937 66.383 11.7187 66.0801 11.4158L65.2763 10.612C64.9737 10.3094 64.4995 10.2842 64.0715 10.2842C63.2971 10.284 62.6692 9.65627 62.6692 8.88184C62.6692 8.10738 63.2971 7.47965 64.0715 7.47949C64.4993 7.47949 64.9736 7.45339 65.2761 7.15086L66.0807 6.34621C66.3833 6.04368 66.4094 5.56945 66.4094 5.1416C66.4094 5.07368 66.4143 5.00691 66.4237 4.94162C66.4678 4.63547 66.4414 4.29759 66.2226 4.07887L66.0002 3.85645C65.8551 3.71132 65.855 3.47607 66 3.33081C66.1451 3.18536 66.3808 3.18525 66.5261 3.33057L66.7484 3.55283C66.9669 3.77135 67.3045 3.7979 67.6103 3.75369C67.6761 3.74419 67.7433 3.73926 67.8117 3.73926C68.2396 3.73927 68.7138 3.71315 69.0163 3.41062L69.8215 2.60548C70.1237 2.30323 70.1487 1.82979 70.1486 1.40234C70.1486 0.627787 70.7774 1.46562e-07 71.552 1.63491e-07ZM69.0149 6.87112C68.7126 6.56887 68.2392 6.54393 67.8117 6.54395C67.3832 6.54395 66.9082 6.56951 66.6053 6.87249L65.8024 7.67536C65.4994 7.97834 65.4738 8.45335 65.4738 8.88184C65.4738 9.30928 65.4988 9.78274 65.801 10.085L66.6055 10.8894C66.9084 11.1923 67.3834 11.2187 67.8117 11.2188C68.2392 11.2188 68.7126 11.1938 69.0149 10.8916L69.8215 10.085C70.1237 9.78271 70.1487 9.3093 70.1486 8.88184C70.1486 8.45346 70.1222 7.97847 69.8193 7.67557L69.0149 6.87112Z" fill="var(--fill-0, #1A41A6)"/>
<path d="M60.3322 11.2188C61.1066 11.2189 61.7346 11.8476 61.7346 12.6221C61.7344 13.3963 61.1065 14.0242 60.3322 14.0244C59.5578 14.0244 58.9301 13.3965 58.9299 12.6221C58.9299 11.8475 59.5577 11.2187 60.3322 11.2188Z" fill="var(--fill-0, #1A41A6)"/>
<path d="M60.3322 3.73926C61.1065 3.73944 61.7344 4.36729 61.7346 5.1416C61.7346 5.91605 61.1066 6.54376 60.3322 6.54395C59.5577 6.54395 58.9299 5.91616 58.9299 5.1416C58.9301 4.36718 59.5578 3.73926 60.3322 3.73926Z" fill="var(--fill-0, #1A41A6)"/>
<path d="M64.0715 0C64.8461 1.69285e-08 65.4738 0.627786 65.4738 1.40234C65.4737 2.17674 64.8459 2.80469 64.0715 2.80469C63.2972 2.80453 62.6693 2.17665 62.6692 1.40234C62.6692 0.627885 63.2971 0.000159415 64.0715 0Z" fill="var(--fill-0, #1A41A6)"/>
<path d="M78.7471 14.959C79.5216 14.959 80.1493 15.5869 80.1494 16.3613C80.1494 17.1359 79.5216 17.7637 78.7471 17.7637C77.9727 17.7635 77.3447 17.1358 77.3447 16.3613C77.3449 15.587 77.9727 14.9591 78.7471 14.959Z" fill="var(--fill-0, #1A41A6)"/>
<path fill-rule="evenodd" clip-rule="evenodd" d="M86.2276 1.86213e-07C87.0019 0.00020792 87.6299 0.627915 87.6299 1.40234C87.6297 2.17662 87.0018 2.80448 86.2276 2.80469C85.799 2.80469 85.3241 2.83014 85.021 3.13308L84.2183 3.93527C83.9153 4.23815 83.8896 4.71316 83.8897 5.1416C83.8897 5.56956 83.915 6.04374 84.2177 6.34627L85.0213 7.14953C85.3243 7.45228 85.7993 7.47949 86.2276 7.47949C86.6549 7.47961 87.1284 7.45368 87.4305 7.15154L88.2358 6.34621C88.5384 6.04367 88.5645 5.56946 88.5645 5.1416C88.5646 4.36726 89.1925 3.73939 89.9668 3.73926C90.7413 3.73926 91.369 4.36718 91.3692 5.1416C91.3692 5.91616 90.7414 6.54395 89.9668 6.54395C89.5389 6.54387 89.0646 6.5692 88.762 6.8718L87.9584 7.67537C87.6554 7.97836 87.6299 8.45334 87.6299 8.88184C87.6299 9.30929 87.6548 9.78272 87.9571 10.085L88.7622 10.8901C89.0647 11.1926 89.539 11.2188 89.9668 11.2188C90.7414 11.2188 91.3692 11.8475 91.3692 12.6221C91.3689 13.3965 90.7412 14.0244 89.9668 14.0244C89.1925 14.0243 88.5647 13.3964 88.5645 12.6221C88.5645 12.1937 88.5381 11.7187 88.2352 11.4158L87.4307 10.6113C87.1285 10.3091 86.655 10.2841 86.2276 10.2842C85.7991 10.2842 85.3241 10.3097 85.0211 10.6127L84.2182 11.4156C83.9152 11.7186 83.8897 12.1936 83.8897 12.6221C83.8895 13.0495 83.9146 13.523 84.2168 13.8252L85.0213 14.6297C85.3242 14.9326 85.7992 14.959 86.2276 14.959C87.0019 14.9592 87.6298 15.587 87.6299 16.3613C87.6299 17.1358 87.0019 17.7635 86.2276 17.7637C85.453 17.7637 84.8242 17.1359 84.8242 16.3613C84.8243 15.9334 84.799 15.4591 84.4964 15.1565L83.6907 14.3508C83.3883 14.0484 82.9149 14.0244 82.4873 14.0244C82.4373 14.0244 82.388 14.0218 82.3394 14.0166C82.0004 13.9805 81.6268 14.0072 81.3858 14.2484L81.1138 14.5207C80.9685 14.6662 80.7328 14.6661 80.5875 14.5206C80.4426 14.3754 80.4426 14.1403 80.5876 13.9951L80.8603 13.7222C81.1015 13.4807 81.1281 13.107 81.0926 12.7676C81.0876 12.7198 81.085 12.6712 81.085 12.6221C81.085 12.1937 81.0586 11.7187 80.7557 11.4158L79.9519 10.612C79.6493 10.3094 79.1751 10.2842 78.7471 10.2842C77.9727 10.284 77.3448 9.65627 77.3447 8.88184C77.3447 8.10738 77.9727 7.47965 78.7471 7.47949C79.1749 7.47949 79.6492 7.45339 79.9517 7.15086L80.7563 6.34621C81.0589 6.04368 81.085 5.56945 81.085 5.1416C81.085 5.07368 81.0899 5.00691 81.0993 4.94162C81.1434 4.63547 81.1169 4.29759 80.8982 4.07887L80.6758 3.85645C80.5307 3.71132 80.5306 3.47607 80.6756 3.33081C80.8207 3.18536 81.0564 3.18525 81.2017 3.33057L81.4239 3.55283C81.6425 3.77135 81.9801 3.7979 82.2859 3.75369C82.3517 3.74419 82.4189 3.73926 82.4873 3.73926C82.9152 3.73927 83.3894 3.71315 83.6919 3.41062L84.4971 2.60548C84.7993 2.30323 84.8243 1.82979 84.8242 1.40234C84.8242 0.627787 85.453 1.69284e-07 86.2276 1.86213e-07ZM83.6905 6.87112C83.3882 6.56887 82.9148 6.54393 82.4873 6.54395C82.0588 6.54395 81.5838 6.56951 81.2808 6.87249L80.478 7.67536C80.175 7.97834 80.1494 8.45335 80.1494 8.88184C80.1494 9.30928 80.1744 9.78274 80.4766 10.085L81.2811 10.8894C81.584 11.1923 82.0589 11.2187 82.4873 11.2188C82.9148 11.2188 83.3882 11.1938 83.6905 10.8916L84.4971 10.085C84.7993 9.78271 84.8242 9.3093 84.8242 8.88184C84.8242 8.45346 84.7978 7.97847 84.4949 7.67557L83.6905 6.87112Z" fill="var(--fill-0, #1A41A6)"/>
<path d="M75.0078 11.2188C75.7822 11.2189 76.4102 11.8476 76.4102 12.6221C76.41 13.3963 75.7821 14.0242 75.0078 14.0244C74.2334 14.0244 73.6057 13.3965 73.6055 12.6221C73.6055 11.8475 74.2333 11.2187 75.0078 11.2188Z" fill="var(--fill-0, #1A41A6)"/>
<path d="M75.0078 3.73926C75.7821 3.73944 76.41 4.36729 76.4102 5.1416C76.4102 5.91605 75.7822 6.54376 75.0078 6.54395C74.2333 6.54395 73.6055 5.91616 73.6055 5.1416C73.6056 4.36718 74.2334 3.73926 75.0078 3.73926Z" fill="var(--fill-0, #1A41A6)"/>
<path d="M78.7471 2.27219e-08C79.5216 3.96504e-08 80.1494 0.627786 80.1494 1.40234C80.1492 2.17674 79.5215 2.80469 78.7471 2.80469C77.9728 2.80453 77.3449 2.17665 77.3447 1.40234C77.3447 0.627885 77.9727 0.000159437 78.7471 2.27219e-08Z" fill="var(--fill-0, #1A41A6)"/>
</g>
</svg>
