<svg preserveAspectRatio="none" width="100%" height="100%" overflow="visible" style="display: block;" viewBox="0 0 20 20" fill="none" xmlns="http://www.w3.org/2000/svg">
<g id="Icon">
<path id="Vector" d="M7.50033 5.83333H12.5003M12.5003 14.1667V11.6667M10.0003 14.1667H10.0087M7.50033 14.1667H7.50866M7.50033 11.6667H7.50866M10.0003 11.6667H10.0087M12.5003 9.16667H12.5087M10.0003 9.16667H10.0087M7.50033 9.16667H7.50866M5.83366 17.5H14.167C14.609 17.5 15.0329 17.3244 15.3455 17.0118C15.6581 16.6993 15.8337 16.2754 15.8337 15.8333V4.16667C15.8337 3.72464 15.6581 3.30072 15.3455 2.98816C15.0329 2.67559 14.609 2.5 14.167 2.5H5.83366C5.39163 2.5 4.96771 2.67559 4.65515 2.98816C4.34259 3.30072 4.16699 3.72464 4.16699 4.16667V15.8333C4.16699 16.2754 4.34259 16.6993 4.65515 17.0118C4.96771 17.3244 5.39163 17.5 5.83366 17.5Z" stroke="var(--stroke-0, white)" stroke-width="1.25" stroke-linecap="round" stroke-linejoin="round"/>
</g>
</svg>
