<svg preserveAspectRatio="none" width="100%" height="100%" overflow="visible" style="display: block;" viewBox="0 0 20 20" fill="none" xmlns="http://www.w3.org/2000/svg">
<g id="Icon">
<path id="Vector" d="M8.61917 3.28333C8.69417 2.83167 9.08583 2.5 9.54417 2.5H10.455C10.9133 2.5 11.305 2.83167 11.38 3.28333L11.5042 4.02833C11.5625 4.38167 11.8242 4.665 12.1542 4.80333C12.4858 4.94 12.8667 4.92167 13.1583 4.71333L13.7725 4.27417C13.9531 4.14505 14.1737 4.08423 14.395 4.10254C14.6163 4.12085 14.8239 4.21711 14.9808 4.37417L15.625 5.01917C15.95 5.34333 15.9917 5.85417 15.725 6.2275L15.2858 6.84167C15.0775 7.13333 15.0592 7.51333 15.1967 7.845C15.3342 8.17583 15.6175 8.43667 15.9717 8.495L16.7158 8.62C17.1683 8.695 17.4992 9.08667 17.4992 9.54417V10.4558C17.4992 10.9142 17.1683 11.3058 16.7158 11.3808L15.9717 11.505C15.6175 11.5633 15.3342 11.8242 15.1967 12.155C15.0592 12.4867 15.0775 12.8667 15.2858 13.1583L15.725 13.7733C15.9917 14.1458 15.9492 14.6567 15.625 14.9817L14.98 15.6258C14.8231 15.7827 14.6157 15.8788 14.3946 15.8971C14.1735 15.9154 13.9531 15.8547 13.7725 15.7258L13.1575 15.2867C12.8658 15.0783 12.4858 15.06 12.155 15.1975C11.8242 15.335 11.5633 15.6183 11.5042 15.9717L11.38 16.7167C11.305 17.1683 10.9133 17.5 10.455 17.5H9.54333C9.085 17.5 8.69417 17.1683 8.61833 16.7167L8.495 15.9717C8.43583 15.6183 8.175 15.335 7.84417 15.1967C7.5125 15.06 7.1325 15.0783 6.84083 15.2867L6.22583 15.7258C5.85333 15.9925 5.3425 15.95 5.0175 15.6258L4.37333 14.9808C4.21627 14.8239 4.12002 14.6163 4.10171 14.395C4.08339 14.1737 4.14421 13.9531 4.27333 13.7725L4.7125 13.1583C4.92083 12.8667 4.94 12.4867 4.8025 12.155C4.665 11.8242 4.38167 11.5633 4.0275 11.505L3.2825 11.38C2.83083 11.305 2.49917 10.9133 2.49917 10.4558V9.54417C2.49917 9.08583 2.83083 8.69417 3.2825 8.61917L4.0275 8.495C4.38083 8.43667 4.665 8.17583 4.8025 7.845C4.94 7.51333 4.92167 7.13333 4.71333 6.84167L4.27417 6.22667C4.14505 6.04604 4.08423 5.82544 4.10254 5.60416C4.12085 5.38288 4.21711 5.17528 4.37417 5.01833L5.01833 4.37417C5.17528 4.21711 5.38288 4.12085 5.60416 4.10254C5.82544 4.08423 6.04604 4.14505 6.22667 4.27417L6.84083 4.71333C7.1325 4.92167 7.51333 4.94 7.84417 4.8025C8.175 4.665 8.43583 4.38167 8.49417 4.02833L8.61917 3.28333ZM12.5 10C12.5 10.663 12.2366 11.2989 11.7678 11.7678C11.2989 12.2366 10.663 12.5 10 12.5C9.33696 12.5 8.70107 12.2366 8.23223 11.7678C7.76339 11.2989 7.5 10.663 7.5 10C7.5 9.33696 7.76339 8.70107 8.23223 8.23223C8.70107 7.76339 9.33696 7.5 10 7.5C10.663 7.5 11.2989 7.76339 11.7678 8.23223C12.2366 8.70107 12.5 9.33696 12.5 10Z" stroke="var(--stroke-0, white)" stroke-width="1.25" stroke-linecap="round" stroke-linejoin="round"/>
</g>
</svg>
