<svg preserveAspectRatio="none" width="100%" height="100%" overflow="visible" style="display: block;" viewBox="0 0 28 28" fill="none" xmlns="http://www.w3.org/2000/svg">
<g id="Icon">
<path id="Vector" d="M10.4997 8.16667H17.4997M17.4997 19.8333V16.3333M13.9997 19.8333H14.0113M10.4997 19.8333H10.5113M10.4997 16.3333H10.5113M13.9997 16.3333H14.0113M17.4997 12.8333H17.5113M13.9997 12.8333H14.0113M10.4997 12.8333H10.5113M8.16634 24.5H19.833C20.4518 24.5 21.0453 24.2542 21.4829 23.8166C21.9205 23.379 22.1663 22.7855 22.1663 22.1667V5.83333C22.1663 5.21449 21.9205 4.621 21.4829 4.18342C21.0453 3.74583 20.4518 3.5 19.833 3.5H8.16634C7.5475 3.5 6.95401 3.74583 6.51643 4.18342C6.07884 4.621 5.83301 5.21449 5.83301 5.83333V22.1667C5.83301 22.7855 6.07884 23.379 6.51643 23.8166C6.95401 24.2542 7.5475 24.5 8.16634 24.5Z" stroke="var(--stroke-0, #1A41A6)" stroke-width="1.75" stroke-linecap="round" stroke-linejoin="round"/>
</g>
</svg>
