<svg preserveAspectRatio="none" width="100%" height="100%" overflow="visible" style="display: block;" viewBox="0 0 28 28" fill="none" xmlns="http://www.w3.org/2000/svg">
<g id="Icon">
<path id="Vector" d="M12.0668 4.59667C12.1718 3.96433 12.7202 3.5 13.3618 3.5H14.637C15.2787 3.5 15.827 3.96433 15.932 4.59667L16.1058 5.63967C16.1875 6.13433 16.5538 6.531 17.0158 6.72467C17.4802 6.916 18.0133 6.89033 18.4217 6.59867L19.2815 5.98383C19.5344 5.80306 19.8432 5.71792 20.153 5.74355C20.4628 5.76919 20.7534 5.90395 20.9732 6.12383L21.875 7.02683C22.33 7.48067 22.3883 8.19583 22.015 8.7185L21.4002 9.57833C21.1085 9.98667 21.0828 10.5187 21.2753 10.983C21.4678 11.4462 21.8645 11.8113 22.3603 11.893L23.4022 12.068C24.0357 12.173 24.4988 12.7213 24.4988 13.3618V14.6382C24.4988 15.2798 24.0357 15.8282 23.4022 15.9332L22.3603 16.107C21.8645 16.1887 21.4678 16.5538 21.2753 17.017C21.0828 17.4813 21.1085 18.0133 21.4002 18.4217L22.015 19.2827C22.3883 19.8042 22.3288 20.5193 21.875 20.9743L20.972 21.8762C20.7523 22.0957 20.4619 22.2303 20.1524 22.256C19.8429 22.2816 19.5343 22.1966 19.2815 22.0162L18.4205 21.4013C18.0122 21.1097 17.4802 21.084 17.017 21.2765C16.5538 21.469 16.1887 21.8657 16.1058 22.3603L15.932 23.4033C15.827 24.0357 15.2787 24.5 14.637 24.5H13.3607C12.719 24.5 12.1718 24.0357 12.0657 23.4033L11.893 22.3603C11.8102 21.8657 11.445 21.469 10.9818 21.2753C10.5175 21.084 9.9855 21.1097 9.57717 21.4013L8.71617 22.0162C8.19467 22.3895 7.4795 22.33 7.0245 21.8762L6.12267 20.9732C5.90278 20.7534 5.76803 20.4628 5.74239 20.153C5.71675 19.8432 5.8019 19.5344 5.98267 19.2815L6.5975 18.4217C6.88917 18.0133 6.916 17.4813 6.7235 17.017C6.531 16.5538 6.13433 16.1887 5.6385 16.107L4.5955 15.932C3.96317 15.827 3.49883 15.2787 3.49883 14.6382V13.3618C3.49883 12.7202 3.96317 12.1718 4.5955 12.0668L5.6385 11.893C6.13317 11.8113 6.531 11.4462 6.7235 10.983C6.916 10.5187 6.89033 9.98667 6.59867 9.57833L5.98383 8.71733C5.80306 8.46445 5.71792 8.15561 5.74355 7.84582C5.76919 7.53603 5.90395 7.24539 6.12383 7.02567L7.02567 6.12383C7.24539 5.90395 7.53603 5.76919 7.84582 5.74355C8.15561 5.71792 8.46445 5.80306 8.71733 5.98383L9.57717 6.59867C9.9855 6.89033 10.5187 6.916 10.9818 6.7235C11.445 6.531 11.8102 6.13433 11.8918 5.63967L12.0668 4.59667ZM17.5 14C17.5 14.9283 17.1313 15.8185 16.4749 16.4749C15.8185 17.1313 14.9283 17.5 14 17.5C13.0717 17.5 12.1815 17.1313 11.5251 16.4749C10.8687 15.8185 10.5 14.9283 10.5 14C10.5 13.0717 10.8687 12.1815 11.5251 11.5251C12.1815 10.8687 13.0717 10.5 14 10.5C14.9283 10.5 15.8185 10.8687 16.4749 11.5251C17.1313 12.1815 17.5 13.0717 17.5 14Z" stroke="var(--stroke-0, #1A41A6)" stroke-width="1.75" stroke-linecap="round" stroke-linejoin="round"/>
</g>
</svg>
