<svg preserveAspectRatio="none" width="100%" height="100%" overflow="visible" style="display: block;" viewBox="0 0 126.936 114.417" fill="none" xmlns="http://www.w3.org/2000/svg">
<g id="Vector">
<path d="M81.9938 22.3149C90.4842 22.3637 98.9741 22.3544 107.464 22.2864C112.23 22.2683 118.078 22.1017 122.753 22.5171C126.224 24.7614 126.843 26.0685 126.846 30.2441C126.854 42.5129 126.821 54.7816 126.861 67.0504C126.748 73.65 127.185 80.5177 126.706 87.0702C126.006 90.2747 124.083 92.0871 120.856 92.44C116.808 92.8829 112.937 92.6702 108.909 92.6565C103.302 92.6368 97.718 92.5765 92.1234 92.5305C92.8606 95.7064 93.5467 98.365 94.4817 101.486C96.2536 101.495 98.2474 101.253 99.84 102.114C100.508 102.477 100.998 103.099 101.194 103.834C101.759 105.922 100.464 107.991 98.3038 108.114C93.1412 108.409 87.8832 108.301 82.7013 108.305C76.7818 108.308 70.808 108.398 64.9 108.149C61.6133 107.986 60.9424 104.338 62.9352 102.275C63.9776 101.196 67.472 101.525 69.0219 101.565L70.9116 92.6171C67.1207 92.6368 51.0857 92.9596 48.3361 92.2137C47.8588 91.2749 47.9054 91.7561 48.2391 90.7191C49.3709 90.0768 50.1025 90.3728 51.3378 90.3733C74.395 90.3788 97.4971 90.6282 120.544 90.3306C125.485 90.2665 124.745 83.749 124.696 80.2837C115.716 79.7948 103.179 80.1806 93.9857 80.1806C84.7926 80.1806 71.3812 80.1751 71.3812 80.1751C68.6892 80.185 59.8694 80.9841 58.2855 79.1475L58.5233 78.4959C58.7272 78.3446 58.9771 78.1594 59.2725 77.9407C63.732 77.8525 69.6571 77.8952 73.9461 77.904L119.678 77.9013L119.661 29.461C115.768 29.4544 82.5517 29.6522 81.6211 28.9447L81.5751 27.8366C81.7625 27.659 81.9499 27.4809 82.1374 27.3027C90.6744 27.1805 115.595 27.26 121.796 27.2589C122.088 33.7599 121.06 75.4043 122.429 77.7982C123.669 78.0514 123.177 78.0936 124.321 77.7012C124.907 75.8121 124.768 32.5421 124.298 27.4282C124.223 26.6133 122.942 25.1922 122.01 24.8847C119.458 24.0429 114.327 24.6348 111.942 24.4863C107.848 24.2315 83.4603 25.1763 81.5246 23.9837C81.3712 22.9375 81.3131 23.3622 81.9938 22.3149Z" fill="var(--fill-0, #1A41A6)"/>
<path d="M73.0645 92.6192L90.0071 92.628C90.3474 94.7193 92.1927 99.9231 91.5844 101.5L90.6318 101.631L71.1852 101.617C71.9553 98.4609 72.6179 95.8286 73.0645 92.6192Z" fill="#F1F4FE"/>
<path d="M63.9075 103.821C69.0691 103.71 95.1454 103.024 98.6952 103.994C99.28 105.004 99.1298 104.598 98.8656 106.031C94.1869 106.196 67.4896 106.634 64.6813 105.888C63.8412 105.021 64.1059 105.285 63.9075 103.821Z" fill="#F1F4FE"/>
<path d="M21.3114 65.1078L29.0472 65.1539C29.1546 67.8985 29.1168 70.635 29.1031 73.3818C25.9551 73.5073 23.896 73.4273 20.7809 73.1395C20.8784 85.6741 20.4504 99.9174 20.9327 112.166L43.0982 112.096C43.073 108.323 42.5562 86.3564 43.6983 84.5884L44.2573 84.5873C45.542 86.1492 45.1512 89.7286 45.1764 92.0244L45.2498 110.369L45.7782 109.679C46.7515 108.413 48.6363 105.557 50.1385 105.36C50.8773 106.115 50.6564 105.756 50.8915 106.82C50.2618 108.352 45.628 112.921 44.2951 114.318C40.6895 114.321 20.8478 114.781 19.3346 113.694C17.0481 106.706 19.8284 83.9263 18.65 75.6294C18.6057 75.3153 18.7723 70.7659 18.8671 70.6651C20.7097 68.7102 21.2621 68.8571 21.3114 65.1078Z" fill="var(--fill-0, #1A41A6)"/>
<path d="M23.1645 67.2009C24.4096 67.1603 25.3917 66.9937 26.4851 67.5264C27.2475 68.5639 27.0217 70.0639 26.9975 71.4477C25.7102 71.4992 24.7736 71.6642 23.6183 71.1386C22.8921 69.8145 23.1573 68.8576 23.1645 67.2009Z" fill="#F1F4FE"/>
<path d="M22.9841 77.5839C28.2762 77.5834 34.8462 77.8881 39.9727 77.528C41.6191 79.318 40.9877 88.4699 40.9307 91.5445C35.2123 91.6037 29.4939 91.5648 23.7772 91.4289C22.2881 90.4369 22.9452 79.7986 22.9841 77.5839Z" fill="var(--fill-0, #1A41A6)"/>
<path d="M25.0829 79.7781L38.5787 79.7572L38.6598 83.5701C35.9058 83.6057 27.4905 83.8665 25.3903 83.3371C24.8346 82.2679 25.0374 81.038 25.0829 79.7781Z" fill="#F1F4FE"/>
<path d="M25.1293 85.5993C27.7978 85.5718 36.4346 85.2951 38.4394 85.9725C38.9167 87.0198 38.7348 88.1976 38.6893 89.3918C35.8772 89.3994 27.8258 89.6017 25.5267 89.161C24.9353 88.2255 25.1206 86.7924 25.1293 85.5993Z" fill="#F1F4FE"/>
<path d="M39.554 69.366C42.4368 69.1589 45.2286 69.2192 48.1163 69.2444L48.2336 77.4109C45.1382 77.3101 43.0593 77.3252 39.9727 77.528C39.7919 75.2432 39.7996 73.6907 39.8451 71.4251C37.8216 71.4662 33.8899 71.8213 32.283 70.9795C31.7963 70.1585 31.8588 70.5822 32.0583 69.6724C33.4372 68.8914 37.7422 69.3803 39.4011 69.6609L39.554 69.366Z" fill="var(--fill-0, #1A41A6)"/>
<path d="M41.995 71.4183C43.2961 71.3772 44.4464 71.1892 45.5705 71.7548C46.2556 72.721 46.0615 73.9174 46.0511 75.1796C44.7259 75.1906 43.6715 75.315 42.4532 74.8311C41.7056 73.5651 41.9912 73.1326 41.995 71.4183Z" fill="#F1F4FE"/>
<path d="M36.8626 30.3497L45.5602 30.2346C45.6802 33.084 45.6451 36.2654 45.6758 39.1427L36.8637 39.1712L36.8626 30.3497Z" fill="var(--fill-0, #1A41A6)"/>
<path d="M38.9921 32.3345L43.684 32.4052L43.7213 37.1919L38.894 37.1848L38.9921 32.3345Z" fill="#F1F4FE"/>
<path d="M49.7298 30.8859C52.242 30.7681 55.3095 30.8415 57.8667 30.8376C57.8558 32.6512 58.0591 38.5685 57.3483 39.7298C54.5877 39.6882 51.8272 39.6262 49.0677 39.544C49.0496 37.5447 48.6183 32.1749 49.7298 30.8859Z" fill="var(--fill-0, #1A41A6)"/>
<path d="M51.1734 32.9621L55.8707 33.0355L55.794 37.5734L51.0934 37.6112L51.1734 32.9621Z" fill="#F1F4FE"/>
<path d="M63.0084 30.2112C65.4111 30.312 68.0066 30.312 70.4268 30.3553C70.4438 32.2335 71.0264 38.147 69.6678 39.0211L61.6394 38.9948C61.6021 37.0788 61.3237 32.0937 61.9709 30.6096L63.0084 30.2112Z" fill="var(--fill-0, #1A41A6)"/>
<path d="M63.6772 32.2507L68.4815 32.248C68.5105 33.8154 68.4732 35.4672 68.4634 37.0418L63.6388 37.0604L63.6772 32.2507Z" fill="#F1F4FE"/>
<path d="M53.5005 20.0931L61.7192 20.183C61.7625 23.2751 61.8474 26.0329 61.5427 29.1141L53.1312 28.9278C53.1186 27.1049 52.8714 21.421 53.5005 20.0931Z" fill="var(--fill-0, #1A41A6)"/>
<path d="M55.2139 22.1711C56.6569 22.1645 58.2906 21.8773 59.3314 22.6698C59.9502 23.7884 59.7063 25.4709 59.6471 26.8312L55.0862 26.8301L55.2139 22.1711Z" fill="#F1F4FE"/>
<path d="M61.4088 11.0291L69.3956 11.0456C69.5852 13.9782 69.6153 16.4116 69.6 19.3535C66.9556 19.4171 64.0098 19.3414 61.3397 19.3332C61.3375 16.565 61.3606 13.7968 61.4088 11.0291Z" fill="var(--fill-0, #1A41A6)"/>
<path d="M63.4723 13.159C64.7602 13.1129 65.8426 12.9409 66.9985 13.4423C67.7597 14.4365 67.5208 15.7447 67.4917 17.0962C66.1764 17.1784 64.8814 17.4491 63.822 16.8112C63.1654 15.7902 63.4159 14.459 63.4723 13.159Z" fill="#F1F4FE"/>
<path d="M8.53976 106.066L16.5709 106.077C16.6542 108.82 16.6822 111.565 16.6553 114.31C14.2861 114.432 10.9934 114.324 8.55456 114.314C8.52496 111.565 8.52003 108.816 8.53976 106.066Z" fill="var(--fill-0, #1A41A6)"/>
<path d="M10.5709 108.118C11.9197 108.075 13.1583 107.863 14.2812 108.497C14.9186 109.61 14.5947 110.779 14.4451 112.131C13.1062 112.204 11.9991 112.428 10.857 111.822C10.2481 110.864 10.5128 109.354 10.5709 108.118Z" fill="#F1F4FE"/>
<path d="M7.84107 94.1662L16.0345 94.1656L16.0772 102.363C13.3139 102.365 10.5512 102.332 7.78956 102.263C7.73804 99.564 7.75557 96.8643 7.84107 94.1662Z" fill="var(--fill-0, #1A41A6)"/>
<path d="M9.93216 96.3002C11.2349 96.2394 12.2559 96.0662 13.4474 96.5452C14.1971 97.9219 13.9001 98.5028 13.8869 100.302C12.5908 100.346 11.4689 100.538 10.358 99.9612C9.66581 98.9056 9.89325 97.6402 9.93216 96.3002Z" fill="#F1F4FE"/>
<path d="M70.7306 20.7409L78.6708 20.7612C78.9623 23.4252 78.9317 26.2039 78.964 28.891L70.6133 28.9189C70.6813 26.2033 70.6972 23.4598 70.7306 20.7409Z" fill="var(--fill-0, #1A41A6)"/>
<path d="M72.8908 22.8515C74.1525 22.783 75.043 22.5972 76.1452 23.1589C76.7837 24.1728 76.5644 25.5567 76.5337 26.8386C75.2738 26.8906 74.398 27.0452 73.2536 26.5453C72.556 25.5172 72.8251 24.1871 72.8908 22.8515Z" fill="#F1F4FE"/>
<path d="M60.3972 41.3247C62.7561 41.4749 65.6048 41.4541 68.0015 41.4897C68.0612 44.2064 68.0848 46.9242 68.0727 49.6414L59.9681 49.5697C59.9785 47.7523 59.7061 42.6017 60.3972 41.3247Z" fill="var(--fill-0, #1A41A6)"/>
<path d="M62.1305 43.4641C63.3417 43.429 64.5612 43.2657 65.6112 43.8412C66.2777 44.8276 66.0557 46.3891 66.025 47.6792C64.6834 47.7192 63.6169 47.9006 62.4544 47.3054C61.7557 46.2022 62.0445 44.8572 62.1305 43.4641Z" fill="#F1F4FE"/>
<path d="M45.0322 50.3385L52.5652 50.4843C52.591 52.5022 52.7559 56.6817 52.3761 58.4798C49.8375 58.4727 47.2995 58.4289 44.762 58.3483C44.7406 56.6806 44.5132 51.5952 45.0322 50.3385Z" fill="var(--fill-0, #1A41A6)"/>
<path d="M46.9844 52.7433C48.1353 52.6743 48.8527 52.5477 49.9488 52.9642C50.6218 53.8296 50.4322 55.049 50.4289 56.2361C49.2205 56.2942 48.6324 56.3802 47.4393 56.047C46.7334 54.9098 46.9932 54.2762 46.9844 52.7433Z" fill="#F1F4FE"/>
<path d="M54.2744 59.2596L62.0327 59.2459L62.111 67.1132L54.2629 67.1143L54.2744 59.2596Z" fill="var(--fill-0, #1A41A6)"/>
<path d="M56.4006 61.3518C57.5751 61.3222 58.3944 61.2235 59.5163 61.6253C60.2074 62.7729 59.9503 63.4552 59.958 64.981C58.7578 65.0243 57.9516 65.1377 56.8111 64.7075C56.1309 63.5111 56.3968 62.9439 56.4006 61.3518Z" fill="#F1F4FE"/>
<path d="M25.8285 41.1962L33.6339 41.2312C33.715 43.7781 33.6334 46.3961 33.5917 48.9484C30.955 49.0706 28.5403 48.9254 25.9085 48.8015L25.8285 41.1962Z" fill="var(--fill-0, #1A41A6)"/>
<path d="M27.997 43.2153C29.1956 43.1906 29.9755 43.0947 31.1149 43.5261C31.8285 44.8397 31.5627 45.1549 31.5627 46.8593C30.3772 46.9196 29.5321 47.0511 28.4075 46.6269C27.7203 45.6799 27.9543 44.4736 27.997 43.2153Z" fill="#F1F4FE"/>
<path d="M42.6742 11.3679L50.2275 11.3658C50.2818 13.7059 50.4527 16.7953 50.1716 19.0593C47.7125 19.2057 45.1723 19.0955 42.7033 19.038L42.6742 11.3679Z" fill="var(--fill-0, #1A41A6)"/>
<path d="M44.8311 13.5193C45.9683 13.4667 46.6133 13.3445 47.6853 13.7391C48.389 14.9552 48.1276 15.4337 48.1418 17.0548C46.94 17.0817 46.3585 17.1875 45.2372 16.737C44.5877 15.819 44.796 14.719 44.8311 13.5193Z" fill="#F1F4FE"/>
<path d="M42.3034 40.834L49.7744 40.7973L49.9301 48.5934C48.0042 48.7381 44.4249 48.4991 42.3598 48.4114L42.3034 40.834Z" fill="var(--fill-0, #1A41A6)"/>
<path d="M44.8513 43.3551C45.5731 42.7282 46.6582 42.7715 47.3285 43.4532C47.9988 44.1356 48.0234 45.2213 47.3844 45.9326C46.9339 46.4341 46.2434 46.6435 45.5906 46.4774C44.9379 46.3108 44.4315 45.7956 44.2764 45.1402C44.1213 44.4847 44.3427 43.7969 44.8513 43.3551Z" fill="#F1F4FE"/>
<path d="M49.1187 77.2538C51.3844 77.2319 53.7163 77.2911 55.9875 77.3201C56.0341 79.1309 56.3311 83.7779 55.5644 85.1283L48.6085 85.1156C48.557 83.2649 48.1596 78.4612 49.1187 77.2538Z" fill="var(--fill-0, #1A41A6)"/>
<path d="M50.8672 79.5216C51.971 79.5287 52.3513 79.481 53.4332 79.8022C54.115 80.9229 53.853 81.4425 53.8415 82.9447C52.678 82.948 51.7359 83.114 50.8579 82.4487C50.3986 81.4573 50.6798 80.6412 50.8672 79.5216Z" fill="#F1F4FE"/>
<path d="M20.7838 31.0645L28.2351 31.1248L28.3223 38.6732L20.7487 38.6293L20.7838 31.0645Z" fill="var(--fill-0, #1A41A6)"/>
<path d="M23.1601 33.0405C24.2819 33.0065 24.8744 32.875 25.8527 33.4066C26.4988 34.4024 26.2171 35.4711 26.1042 36.731C24.4063 36.6686 24.0353 36.8511 22.9595 35.8898C22.7425 34.7038 22.9173 34.1908 23.1601 33.0405Z" fill="#F1F4FE"/>
<path d="M80.5576 36.5457L87.9837 36.5852C88.0045 39.0903 87.9919 41.5955 87.9453 44.1001L80.5323 44.0935L80.5576 36.5457Z" fill="var(--fill-0, #1A41A6)"/>
<path d="M83.0761 39.0029C83.7974 38.3545 84.9055 38.4071 85.561 39.1213C86.217 39.8354 86.1754 40.9446 85.4684 41.6078C85.0042 42.0429 84.3422 42.1953 83.7349 42.0067C83.1271 41.8182 82.6678 41.3178 82.5314 40.6964C82.3955 40.0749 82.6032 39.4282 83.0761 39.0029Z" fill="#F1F4FE"/>
<path d="M76.2436 0L80.7672 0.0674196C80.7108 2.0152 81.3597 5.65373 80.348 7.13074C80.0822 7.51876 79.0277 7.47546 78.4029 7.53191L73.2847 7.41572C73.3378 5.25419 72.7919 2.52982 73.6085 0.722883C74.663 -0.147426 74.6005 0.12386 76.2436 0Z" fill="var(--fill-0, #1A41A6)"/>
<path d="M75.9579 2.31213C76.695 1.72681 77.7604 1.81724 78.389 2.51765C79.0182 3.21806 78.993 4.28733 78.3326 4.9576C77.8678 5.42947 77.1795 5.60429 76.5459 5.41137C75.9124 5.21846 75.4383 4.69014 75.315 4.0396C75.1911 3.38906 75.4388 2.72372 75.9579 2.31213Z" fill="#F1F4FE"/>
<path d="M74.7133 51.3245L81.9925 51.4297C82.0238 53.8856 81.998 56.3957 81.9986 58.857L74.7166 58.8471L74.7133 51.3245Z" fill="var(--fill-0, #1A41A6)"/>
<path d="M77.4192 53.7562C78.136 53.2443 79.1291 53.389 79.6706 54.0845C80.2115 54.7805 80.1079 55.7785 79.4355 56.3485C78.9751 56.7387 78.3383 56.8451 77.776 56.6258C77.2137 56.4061 76.8169 55.8964 76.7423 55.2973C76.6683 54.6983 76.9276 54.1064 77.4192 53.7562Z" fill="#F1F4FE"/>
<path d="M19.2343 3.54371C21.4999 3.50535 23.9207 3.59797 26.1979 3.64346C26.3332 6.25549 26.4456 8.44826 26.371 11.069H19.0085C19.0151 8.66857 18.9378 5.8998 19.2343 3.54371Z" fill="var(--fill-0, #1A41A6)"/>
<path d="M21.6787 5.89662C22.4131 5.38967 23.4095 5.50805 24.0047 6.17339C24.5993 6.83818 24.607 7.8422 24.0222 8.51576C23.5723 9.03367 22.8636 9.24524 22.2038 9.0589C21.5434 8.87256 21.0507 8.3212 20.9383 7.64436C20.826 6.96751 21.1142 6.28683 21.6787 5.89662Z" fill="#F1F4FE"/>
<path d="M63.2533 66.5508L70.4218 66.6665L70.3807 73.6947L63.1732 73.7758L63.2533 66.5508Z" fill="var(--fill-0, #1A41A6)"/>
<path d="M65.9479 68.8416C66.6812 68.3938 67.637 68.6054 68.1138 69.32C68.5901 70.0353 68.4174 70.9987 67.7219 71.5035C67.2468 71.8488 66.6209 71.9058 66.0915 71.6526C65.5615 71.3994 65.2129 70.8765 65.1828 70.2896C65.1532 69.7031 65.447 69.1474 65.9479 68.8416Z" fill="#F1F4FE"/>
<path d="M12.8257 40.5851L19.6884 40.5736C19.7526 43.0332 19.6901 45.4825 19.6484 47.9421C17.4277 47.9537 15.0486 47.8106 12.818 47.7174C12.8076 45.34 12.8098 42.9625 12.8257 40.5851Z" fill="var(--fill-0, #1A41A6)"/>
<path d="M15.5323 42.9152C16.0113 42.6477 16.5972 42.6592 17.0647 42.9459C17.5322 43.2325 17.8084 43.7488 17.7876 44.2968C17.7668 44.8449 17.4516 45.3392 16.9638 45.5891C16.2278 45.9662 15.3257 45.6839 14.9355 44.955C14.5453 44.2261 14.8111 43.3185 15.5323 42.9152Z" fill="#F1F4FE"/>
<path d="M11.7164 55.4842L18.6504 55.6059L18.8323 62.5645C16.6423 62.7109 13.9717 62.6298 11.7427 62.6204L11.7164 55.4842Z" fill="var(--fill-0, #1A41A6)"/>
<path d="M15.6096 57.4664C16.3851 57.6325 16.8992 58.3696 16.7879 59.1544C16.6761 59.9398 15.9768 60.5043 15.186 60.4478C14.6231 60.4073 14.1299 60.0565 13.9074 59.5381C13.6849 59.019 13.7698 58.42 14.1282 57.9838C14.4867 57.5481 15.0583 57.348 15.6096 57.4664Z" fill="#F1F4FE"/>
<path d="M64.2599 51.7381L71.0432 51.6838L71.0723 58.9812L64.2369 58.8529C64.221 56.4815 64.2287 54.1095 64.2599 51.7381Z" fill="var(--fill-0, #1A41A6)"/>
<path d="M66.4567 53.6506C67.3714 53.7191 67.687 53.7821 68.576 54.0145C69.3011 55.2334 69.0254 55.3907 68.9887 57.0611C68.2455 56.9888 67.7095 56.8962 66.9751 56.7597C66.1569 55.6247 66.4583 55.3676 66.4567 53.6506Z" fill="#F1F4FE"/>
<path d="M32.9431 59.5315L39.8305 59.5397L39.9417 66.563L32.9645 66.4994L32.9431 59.5315Z" fill="var(--fill-0, #1A41A6)"/>
<path d="M35.5153 61.9824C35.916 61.6322 36.475 61.527 36.9754 61.7073C37.4763 61.8882 37.8391 62.3261 37.9235 62.8516C38.0079 63.3772 37.8007 63.9072 37.382 64.2355C36.7583 64.7249 35.8584 64.6284 35.3526 64.0179C34.8462 63.4074 34.9191 62.5047 35.5153 61.9824Z" fill="#F1F4FE"/>
<path d="M70.7031 42.34L77.4661 42.3943C77.556 44.7318 77.5204 47.1383 77.5171 49.4828L70.7207 49.4812L70.7031 42.34Z" fill="var(--fill-0, #1A41A6)"/>
<path d="M73.0692 45.0739C73.4046 44.6826 73.9264 44.5039 74.4311 44.6086C74.9359 44.7128 75.3436 45.0838 75.496 45.5759C75.6483 46.0686 75.5207 46.6052 75.1633 46.9762C74.6323 47.5275 73.7598 47.5566 73.1931 47.042C72.6269 46.5274 72.5721 45.6554 73.0692 45.0739Z" fill="#F1F4FE"/>
<path d="M42.3218 59.923L49.0448 59.8281L49.0388 67.0131L42.2325 66.7966L42.3218 59.923Z" fill="var(--fill-0, #1A41A6)"/>
<path d="M44.7674 62.3593C45.3543 61.8463 46.2416 61.8896 46.776 62.4574C47.3104 63.0252 47.2999 63.9136 46.7524 64.4688C46.3803 64.8469 45.8306 64.9905 45.3209 64.8442C44.8107 64.6978 44.4216 64.2841 44.3059 63.7661C44.1908 63.2477 44.3678 62.7084 44.7674 62.3593Z" fill="#F1F4FE"/>
<path d="M51.2458 42.9552L58.1359 42.975L58.1393 49.7204L51.2935 49.8366L51.2458 42.9552Z" fill="var(--fill-0, #1A41A6)"/>
<path d="M53.6475 45.4229C54.1468 44.854 55.0111 44.7931 55.5849 45.2864C56.1593 45.7796 56.23 46.6428 55.7433 47.2227C55.4238 47.6041 54.924 47.7839 54.4351 47.694C53.9457 47.6036 53.5429 47.2577 53.3801 46.7875C53.2168 46.3178 53.3193 45.7961 53.6475 45.4229Z" fill="#F1F4FE"/>
<path d="M50.5952 0.714918L56.7356 0.85138C56.7762 2.34976 57.1094 6.79886 56.3323 7.844L49.9852 7.79961C49.9469 6.03488 49.5769 1.80445 50.5952 0.714918Z" fill="var(--fill-0, #1A41A6)"/>
<path d="M52.5242 3.0074C53.2038 2.52895 54.142 2.68844 54.6248 3.36474C55.1082 4.04159 54.9548 4.98094 54.2818 5.46871C53.6022 5.96086 52.6519 5.80578 52.1647 5.1229C51.6769 4.44003 51.8386 3.49024 52.5242 3.0074Z" fill="#F1F4FE"/>
<path d="M29.0817 12.8059L35.1656 12.8766L35.358 19.2477L28.9025 19.2833L29.0817 12.8059Z" fill="var(--fill-0, #1A41A6)"/>
<path d="M2.78633 47.2937L8.85492 47.2707L8.95412 53.7158L2.79345 53.7684L2.78633 47.2937Z" fill="var(--fill-0, #1A41A6)"/>
<path d="M51.3453 97.4846C53.2953 97.4835 55.2458 97.4594 57.1952 97.4122C57.3865 99.9179 57.3755 101.347 57.2835 103.832L50.9978 103.884C50.9748 102.378 50.7216 98.6514 51.3453 97.4846Z" fill="var(--fill-0, #1A41A6)"/>
<path d="M30.6616 97.1148C32.4104 96.4302 34.3839 97.2869 35.0783 99.0319C35.7727 100.777 34.9271 102.756 33.1865 103.461C31.4316 104.17 29.4339 103.317 28.7341 101.557C28.0342 99.798 28.899 97.8053 30.6616 97.1148Z" fill="var(--fill-0, #1A41A6)"/>
<path d="M80.2095 82.1601C81.8536 81.3747 83.8239 82.0598 84.6262 83.6963C85.4286 85.3328 84.7638 87.3102 83.1366 88.1295C82.0685 88.6677 80.7937 88.5904 79.799 87.9273C78.8037 87.2636 78.2414 86.117 78.3264 84.9239C78.4113 83.7308 79.1303 82.6758 80.2095 82.1601Z" fill="var(--fill-0, #1A41A6)"/>
<path d="M43.0873 22.1744L48.5443 22.1804L48.6632 28.2194L43.0649 28.1318L43.0873 22.1744Z" fill="var(--fill-0, #1A41A6)"/>
<path d="M1.98893 106.505C3.11025 106.429 3.83423 106.274 4.87334 106.684C6.24567 108.188 6.2221 110.044 5.25862 111.765L4.31268 111.978C3.07298 112.035 2.10238 112.233 1.06546 111.636C-0.289325 110.002 -0.345775 108.476 0.859943 106.689L1.98893 106.505Z" fill="var(--fill-0, #1A41A6)"/>
<path d="M33.0403 24.0294L37.8298 23.9751C37.8693 25.576 37.8018 27.3813 37.7783 28.9986L33.0442 29.0057L33.0403 24.0294Z" fill="var(--fill-0, #1A41A6)"/>
<path d="M37.6604 53.995C38.882 53.8893 39.9562 53.6163 40.9274 54.2334C41.5395 55.278 41.2452 56.5166 41.1345 57.8029C39.2848 57.8468 38.1175 58.2063 37.1452 56.5106C37.2324 55.3581 37.2236 55.055 37.6604 53.995Z" fill="var(--fill-0, #1A41A6)"/>
<path d="M65.5568 23.7439C66.2013 23.7697 66.8453 23.8568 67.4876 23.9297C68.257 24.6241 68.2735 24.805 68.5141 25.826C68.1885 27.0493 68.4615 26.6722 67.5698 27.3573C65.4066 27.3211 64.0721 27.5354 64.094 24.7392C64.7221 23.8146 64.3713 24.1051 65.5568 23.7439Z" fill="var(--fill-0, #1A41A6)"/>
<path d="M29.3903 105.724C31.1288 105.757 32.3657 105.349 34.0663 105.839C34.9657 106.749 34.6988 106.467 34.8122 108.033C33.1062 108.029 31.7684 108.364 30.111 107.899C29.192 106.983 29.4561 107.329 29.3903 105.724Z" fill="var(--fill-0, #1A41A6)"/>
</g>
</svg>
