<svg preserveAspectRatio="none" width="100%" height="100%" overflow="visible" style="display: block;" viewBox="0 0 100 52" fill="none" xmlns="http://www.w3.org/2000/svg">
<g id="Logo">
<g id="Vector">
<path d="M0 29.2455H23.8764V51.5716H2.14776e-06L0 29.2455Z" fill="#FF0000"/>
<path d="M8.50893 36.2174V47.615H5.71778V36.2174H2.24719V33.4846H15.7347L15.497 36.2174H8.50893Z" fill="var(--fill-0, white)"/>
<path d="M18.7279 47.615L17.8097 44.2545H13.5312L12.613 47.615H9.78514L14.0086 33.4846H17.4608L21.6292 47.615H18.7279ZM15.698 36.2782H15.6062L14.1922 41.643H17.1303L15.698 36.2782Z" fill="var(--fill-0, white)"/>
<path d="M36.3736 51.9446C34.911 51.9446 33.5927 51.7165 32.4185 51.2607C31.2444 50.7839 30.2452 50.0899 29.4213 49.1779C28.5975 48.2453 27.9588 47.095 27.5056 45.7272C27.0524 44.3388 26.8258 42.7222 26.8258 40.8777C26.8258 39.054 27.0524 37.4375 27.5056 36.0281C27.9588 34.5981 28.5975 33.4063 29.4213 32.4531C30.2452 31.4789 31.2444 30.7433 32.4185 30.2459C33.5927 29.7485 34.911 29.4998 36.3736 29.4998C38.3716 29.4998 40.0197 29.9144 41.3174 30.7433C42.6152 31.5516 43.6553 32.8366 44.4382 34.5981L40.3905 36.712C40.102 35.8 39.6489 35.0749 39.0309 34.5359C38.4334 33.9764 37.5478 33.6966 36.3736 33.6966C34.9935 33.6966 33.8812 34.1524 33.0365 35.0644C32.2126 35.9555 31.8006 37.2611 31.8006 38.9814V42.4631C31.8006 44.1833 32.2126 45.4992 33.0365 46.4111C33.8812 47.3022 34.9935 47.7479 36.3736 47.7479C37.5273 47.7479 38.4438 47.437 39.1236 46.8153C39.8239 46.1729 40.339 45.4059 40.6685 44.5148L44.5 46.7531C43.6966 48.4112 42.6357 49.6959 41.3174 50.6079C40.0197 51.4989 38.3716 51.9446 36.3736 51.9446ZM60.2138 51.5716L58.6688 46.4111H51.4694L49.9244 51.5716H45.166L52.2728 29.8729H58.0817L65.0958 51.5716H60.2138ZM55.1155 34.1629H54.961L52.5817 42.4009H57.5256L55.1155 34.1629ZM67.4618 51.5716V29.8729H72.1584V47.3748H80.3775V51.5716H67.4618ZM90.7051 51.9446C89.2424 51.9446 87.9242 51.7165 86.75 51.2607C85.5758 50.7839 84.5767 50.0899 83.7528 49.1779C82.9287 48.2453 82.2902 47.095 81.8371 45.7272C81.3837 44.3388 81.1573 42.7222 81.1573 40.8777C81.1573 39.054 81.3837 37.4375 81.8371 36.0281C82.2902 34.5981 82.9287 33.4063 83.7528 32.4531C84.5767 31.4789 85.5758 30.7433 86.75 30.2459C87.9242 29.7485 89.2424 29.4998 90.7051 29.4998C92.7031 29.4998 94.3511 29.9144 95.6489 30.7433C96.9466 31.5516 97.9868 32.8366 98.7697 34.5981L94.7219 36.712C94.4334 35.8 93.9803 35.0749 93.3624 34.5359C92.7649 33.9764 91.8792 33.6966 90.7051 33.6966C89.3247 33.6966 88.2124 34.1524 87.368 35.0644C86.5438 35.9555 86.132 37.2611 86.132 38.9814V42.4631C86.132 44.1833 86.5438 45.4992 87.368 46.4111C88.2124 47.3022 89.3247 47.7479 90.7051 47.7479C91.8584 47.7479 92.7753 47.437 93.4551 46.8153C94.1553 46.1729 94.6702 45.4059 95 44.5148L98.8315 46.7531C98.0281 48.4112 96.9671 49.6959 95.6489 50.6079C94.3511 51.4989 92.7031 51.9446 90.7051 51.9446Z" fill="#1A39A6"/>
<path d="M0.280899 0H81.4607V25.1522H0.280907L0.280899 0Z" fill="#1A39A6"/>
<path d="M11.0477 25.8078C9.15261 25.8078 7.54587 25.4866 6.2275 24.8441C4.90916 24.1809 3.78649 23.3312 2.85952 22.295L5.94941 19.1552C7.41197 20.8132 9.21441 21.6421 11.3567 21.6421C12.5103 21.6421 13.3651 21.4038 13.9213 20.9271C14.4775 20.4505 14.7556 19.8184 14.7556 19.0308C14.7556 18.4298 14.5908 17.9324 14.2612 17.5387C13.9316 17.1242 13.2622 16.8444 12.2528 16.6993L10.1208 16.4195C7.83424 16.1294 6.15542 15.4351 5.08424 14.3367C4.03368 13.2383 3.5084 11.7772 3.5084 9.95345C3.5084 8.97938 3.69379 8.08823 4.06458 7.27997C4.43537 6.47171 4.96065 5.77743 5.64042 5.19715C6.34082 4.61687 7.18537 4.17128 8.17413 3.86041C9.18351 3.52882 10.3268 3.36302 11.6039 3.36302C13.2313 3.36302 14.6629 3.62208 15.8989 4.14019C17.1348 4.6583 18.1957 5.41475 19.0814 6.40954L15.9606 9.58041C15.4457 8.97938 14.8174 8.49236 14.0758 8.11932C13.3549 7.72556 12.4382 7.52867 11.3258 7.52867C10.2753 7.52867 9.4925 7.71519 8.9775 8.08823C8.46253 8.46128 8.20503 8.97938 8.20503 9.64258C8.20503 10.3887 8.40073 10.9275 8.79211 11.2591C9.2041 11.5907 9.86329 11.829 10.7696 11.9741L12.9017 12.3161C15.1264 12.6684 16.7743 13.3626 17.8455 14.3989C18.9167 15.4144 19.4522 16.8651 19.4522 18.7511C19.4522 19.7873 19.2668 20.7406 18.896 21.6111C18.5253 22.4815 17.9794 23.2276 17.2584 23.8493C16.558 24.4711 15.6826 24.9581 14.632 25.3104C13.5814 25.642 12.3867 25.8078 11.0477 25.8078Z" fill="var(--fill-0, white)"/>
<path d="M22.7282 25.4348V3.73606H32.925C33.9343 3.73606 34.8407 3.91221 35.6441 4.26454C36.4475 4.59612 37.1273 5.06243 37.6834 5.66345C38.2601 6.26447 38.7031 7.00019 39.0121 7.87062C39.3211 8.72034 39.4756 9.65295 39.4756 10.6684C39.4756 11.7047 39.3211 12.6476 39.0121 13.4974C38.7031 14.3471 38.2601 15.0724 37.6834 15.6734C37.1273 16.2745 36.4475 16.7511 35.6441 17.1035C34.8407 17.435 33.9343 17.6008 32.925 17.6008H27.4249V25.4348H22.7282ZM27.4249 13.4974H32.3688C33.0691 13.4974 33.6149 13.3212 34.0065 12.9689C34.4183 12.5958 34.6244 12.057 34.6244 11.3524V9.98454C34.6244 9.27991 34.4183 8.75143 34.0065 8.3991C33.6149 8.02606 33.0691 7.83954 32.3688 7.83954H27.4249V13.4974Z" fill="var(--fill-0, white)"/>
<path d="M42.3876 25.4348V3.73606H57.0646V7.9328H47.0843V12.3782H55.6433V16.5439H47.0843V21.238H57.0646V25.4348H42.3876Z" fill="var(--fill-0, white)"/>
<path d="M69.2517 25.8078C67.7893 25.8078 66.4708 25.5798 65.2966 25.1239C64.1225 24.6472 63.1236 23.953 62.2994 23.0411C61.4756 22.1084 60.8371 20.9582 60.3837 19.5904C59.9306 18.2019 59.7039 16.5853 59.7039 14.7408C59.7039 12.9171 59.9306 11.3006 60.3837 9.89128C60.8371 8.46128 61.4756 7.2696 62.2994 6.31628C63.1236 5.34221 64.1225 4.60649 65.2966 4.1091C66.4708 3.61171 67.7893 3.36302 69.2517 3.36302C71.25 3.36302 72.8978 3.77752 74.1955 4.60649C75.4933 5.41475 76.5337 6.69969 77.3163 8.46128L73.2685 10.5752C72.9803 9.6633 72.527 8.93795 71.909 8.3991C71.3118 7.83954 70.4259 7.55975 69.2517 7.55975C67.8716 7.55975 66.7593 8.01569 65.9146 8.92758C65.0907 9.81873 64.6787 11.1244 64.6787 12.8445V16.3263C64.6787 18.0464 65.0907 19.3624 65.9146 20.2743C66.7593 21.1655 67.8716 21.6111 69.2517 21.6111C70.4053 21.6111 71.3219 21.3002 72.0017 20.6785C72.7023 20.036 73.2171 19.2692 73.5466 18.378L77.3781 20.6163C76.5747 22.2743 75.514 23.5592 74.1955 24.4711C72.8978 25.3622 71.25 25.8078 69.2517 25.8078Z" fill="var(--fill-0, white)"/>
</g>
</g>
</svg>
